<svg xmlns="http://www.w3.org/2000/svg" width="1200" height="630" viewBox="0 0 1200 630">
  <defs>
    <linearGradient id="bg" x1="0%" y1="0%" x2="100%" y2="100%">
      <stop offset="0%" style="stop-color:#6366f1;stop-opacity:1" />
      <stop offset="50%" style="stop-color:#8b5cf6;stop-opacity:1" />
      <stop offset="100%" style="stop-color:#a78bfa;stop-opacity:1" />
    </linearGradient>
    <linearGradient id="accent" x1="0%" y1="100%" x2="100%" y2="0%">
      <stop offset="0%" style="stop-color:#c4b5fd;stop-opacity:0.8" />
      <stop offset="100%" style="stop-color:#6366f1;stop-opacity:0.4" />
    </linearGradient>
    <filter id="glow">
      <feGaussianBlur stdDeviation="4" result="coloredBlur"/>
      <feMerge><feMergeNode in="coloredBlur"/><feMergeNode in="SourceGraphic"/></feMerge>
    </filter>
  </defs>
  
  <rect width="1200" height="630" fill="url(#bg)"/>
  <circle cx="500" cy="550" r="20" fill="none" stroke="#c4b5fd" stroke-width="2" opacity="0.15"/>
  <circle cx="500" cy="550" r="4" fill="#c4b5fd" opacity="0.6"/>
  <circle cx="1000" cy="470" r="35" fill="none" stroke="#c4b5fd" stroke-width="2" opacity="0.18"/>
  <circle cx="1000" cy="470" r="4" fill="#c4b5fd" opacity="0.6"/>
  <circle cx="300" cy="390" r="50" fill="none" stroke="#c4b5fd" stroke-width="2" opacity="0.21"/>
  <circle cx="300" cy="390" r="4" fill="#c4b5fd" opacity="0.6"/>
  <circle cx="800" cy="310" r="65" fill="none" stroke="#c4b5fd" stroke-width="2" opacity="0.24"/>
  <circle cx="800" cy="310" r="4" fill="#c4b5fd" opacity="0.6"/>
  <circle cx="100" cy="230" r="80" fill="none" stroke="#c4b5fd" stroke-width="2" opacity="0.27"/>
  <circle cx="100" cy="230" r="4" fill="#c4b5fd" opacity="0.6"/>
  <circle cx="600" cy="150" r="95" fill="none" stroke="#c4b5fd" stroke-width="2" opacity="0.3"/>
  <circle cx="600" cy="150" r="4" fill="#c4b5fd" opacity="0.6"/>
  <circle cx="1100" cy="70" r="110" fill="none" stroke="#c4b5fd" stroke-width="2" opacity="0.32999999999999996"/>
  <circle cx="1100" cy="70" r="4" fill="#c4b5fd" opacity="0.6"/>
  <circle cx="400" cy="620" r="125" fill="none" stroke="#c4b5fd" stroke-width="2" opacity="0.36"/>
  <circle cx="400" cy="620" r="4" fill="#c4b5fd" opacity="0.6"/>

  <rect x="0" y="450" width="1200" height="180" fill="url(#accent)" opacity="0.3"/>
  <text x="60" y="550" font-family="Inter, system-ui, sans-serif" font-size="36" font-weight="800" fill="white" filter="url(#glow)">Best AI Tools for Students</text>
  <text x="60" y="590" font-family="Inter, system-ui, sans-serif" font-size="18" fill="rgba(255,255,255,0.7)">Aryvora</text>
</svg>