<svg xmlns="http://www.w3.org/2000/svg" width="1200" height="630" viewBox="0 0 1200 630">
  <defs>
    <linearGradient id="bg" x1="0%" y1="0%" x2="100%" y2="100%">
      <stop offset="0%" style="stop-color:#f59e0b;stop-opacity:1" />
      <stop offset="50%" style="stop-color:#f97316;stop-opacity:1" />
      <stop offset="100%" style="stop-color:#fb923c;stop-opacity:1" />
    </linearGradient>
    <linearGradient id="accent" x1="0%" y1="100%" x2="100%" y2="0%">
      <stop offset="0%" style="stop-color:#fdba74;stop-opacity:0.8" />
      <stop offset="100%" style="stop-color:#f59e0b;stop-opacity:0.4" />
    </linearGradient>
    <filter id="glow">
      <feGaussianBlur stdDeviation="4" result="coloredBlur"/>
      <feMerge><feMergeNode in="coloredBlur"/><feMergeNode in="SourceGraphic"/></feMerge>
    </filter>
  </defs>
  
  <rect width="1200" height="630" fill="url(#bg)"/>
  <rect x="80" y="60" width="80" height="55" rx="8" fill="#fdba74" opacity="0.08"/>
  <rect x="80" y="155" width="80" height="55" rx="8" fill="#fdba74" opacity="0.095"/>
  <rect x="80" y="250" width="80" height="55" rx="8" fill="#fdba74" opacity="0.11"/>
  <rect x="80" y="345" width="80" height="55" rx="8" fill="#fdba74" opacity="0.125"/>
  <rect x="80" y="440" width="80" height="55" rx="8" fill="#fdba74" opacity="0.14"/>
  <rect x="80" y="535" width="80" height="55" rx="8" fill="#fdba74" opacity="0.155"/>
  <rect x="210" y="60" width="80" height="55" rx="8" fill="#fdba74" opacity="0.095"/>
  <rect x="210" y="155" width="80" height="55" rx="8" fill="#fdba74" opacity="0.11"/>
  <rect x="210" y="250" width="80" height="55" rx="8" fill="#fdba74" opacity="0.125"/>
  <rect x="210" y="345" width="80" height="55" rx="8" fill="#fdba74" opacity="0.14"/>
  <rect x="210" y="440" width="80" height="55" rx="8" fill="#fdba74" opacity="0.155"/>
  <rect x="210" y="535" width="80" height="55" rx="8" fill="#fdba74" opacity="0.16999999999999998"/>
  <rect x="340" y="60" width="80" height="55" rx="8" fill="#fdba74" opacity="0.11"/>
  <rect x="340" y="155" width="80" height="55" rx="8" fill="#fdba74" opacity="0.125"/>
  <rect x="340" y="250" width="80" height="55" rx="8" fill="#fdba74" opacity="0.14"/>
  <rect x="340" y="345" width="80" height="55" rx="8" fill="#fdba74" opacity="0.155"/>
  <rect x="340" y="440" width="80" height="55" rx="8" fill="#fdba74" opacity="0.16999999999999998"/>
  <rect x="340" y="535" width="80" height="55" rx="8" fill="#fdba74" opacity="0.185"/>
  <rect x="470" y="60" width="80" height="55" rx="8" fill="#fdba74" opacity="0.125"/>
  <rect x="470" y="155" width="80" height="55" rx="8" fill="#fdba74" opacity="0.14"/>
  <rect x="470" y="250" width="80" height="55" rx="8" fill="#fdba74" opacity="0.155"/>
  <rect x="470" y="345" width="80" height="55" rx="8" fill="#fdba74" opacity="0.16999999999999998"/>
  <rect x="470" y="440" width="80" height="55" rx="8" fill="#fdba74" opacity="0.185"/>
  <rect x="470" y="535" width="80" height="55" rx="8" fill="#fdba74" opacity="0.2"/>
  <rect x="600" y="60" width="80" height="55" rx="8" fill="#fdba74" opacity="0.14"/>
  <rect x="600" y="155" width="80" height="55" rx="8" fill="#fdba74" opacity="0.155"/>
  <rect x="600" y="250" width="80" height="55" rx="8" fill="#fdba74" opacity="0.16999999999999998"/>
  <rect x="600" y="345" width="80" height="55" rx="8" fill="#fdba74" opacity="0.185"/>
  <rect x="600" y="440" width="80" height="55" rx="8" fill="#fdba74" opacity="0.2"/>
  <rect x="600" y="535" width="80" height="55" rx="8" fill="#fdba74" opacity="0.21500000000000002"/>
  <rect x="730" y="60" width="80" height="55" rx="8" fill="#fdba74" opacity="0.155"/>
  <rect x="730" y="155" width="80" height="55" rx="8" fill="#fdba74" opacity="0.16999999999999998"/>
  <rect x="730" y="250" width="80" height="55" rx="8" fill="#fdba74" opacity="0.185"/>
  <rect x="730" y="345" width="80" height="55" rx="8" fill="#fdba74" opacity="0.2"/>
  <rect x="730" y="440" width="80" height="55" rx="8" fill="#fdba74" opacity="0.21500000000000002"/>
  <rect x="730" y="535" width="80" height="55" rx="8" fill="#fdba74" opacity="0.22999999999999998"/>
  <rect x="860" y="60" width="80" height="55" rx="8" fill="#fdba74" opacity="0.16999999999999998"/>
  <rect x="860" y="155" width="80" height="55" rx="8" fill="#fdba74" opacity="0.185"/>
  <rect x="860" y="250" width="80" height="55" rx="8" fill="#fdba74" opacity="0.2"/>
  <rect x="860" y="345" width="80" height="55" rx="8" fill="#fdba74" opacity="0.21500000000000002"/>
  <rect x="860" y="440" width="80" height="55" rx="8" fill="#fdba74" opacity="0.22999999999999998"/>
  <rect x="860" y="535" width="80" height="55" rx="8" fill="#fdba74" opacity="0.245"/>
  <rect x="990" y="60" width="80" height="55" rx="8" fill="#fdba74" opacity="0.185"/>
  <rect x="990" y="155" width="80" height="55" rx="8" fill="#fdba74" opacity="0.2"/>
  <rect x="990" y="250" width="80" height="55" rx="8" fill="#fdba74" opacity="0.21500000000000002"/>
  <rect x="990" y="345" width="80" height="55" rx="8" fill="#fdba74" opacity="0.22999999999999998"/>
  <rect x="990" y="440" width="80" height="55" rx="8" fill="#fdba74" opacity="0.245"/>
  <rect x="990" y="535" width="80" height="55" rx="8" fill="#fdba74" opacity="0.26"/>

  <rect x="0" y="450" width="1200" height="180" fill="url(#accent)" opacity="0.3"/>
  <text x="60" y="550" font-family="Inter, system-ui, sans-serif" font-size="36" font-weight="800" fill="white" filter="url(#glow)">Note-Taking Methods</text>
  <text x="60" y="590" font-family="Inter, system-ui, sans-serif" font-size="18" fill="rgba(255,255,255,0.7)">Aryvora</text>
</svg>